<?xml version="1.0" encoding="UTF-8"?>
<svg width="160px" height="80px" viewBox="0 0 160 80" version="1.1" xmlns="http://www.w3.org/2000/svg" xmlns:xlink="http://www.w3.org/1999/xlink">
    <!-- Generator: Sketch 51.2 (57519) - http://www.bohemiancoding.com/sketch -->
    <title>Oval</title>
    <desc>Created with Sketch.</desc>
    <defs>
        <radialGradient cx="50%" cy="50%" fx="50%" fy="50%" r="159.907227%" gradientTransform="translate(0.500000,0.500000),scale(0.500000,1.000000),scale(1.000000,0.625853),translate(-0.500000,-0.500000)" id="radialGradient-1">
            <stop stop-color="#8E9DA1" offset="0%"></stop>
            <stop stop-color="#000000" offset="100%"></stop>
        </radialGradient>
    </defs>
    <g id="Page-1" stroke="none" stroke-width="1" fill="none" fill-rule="evenodd">
        <g id="longkeys" transform="translate(-4.000000, -5.000000)" fill="url(#radialGradient-1)" fill-rule="nonzero" stroke="#8E9DA1" stroke-width="5">
            <path d="M84,82.5 C133.302022,82.5 144.673306,81.868262 152.881966,77.763932 C157.017979,75.6959258 159.171145,72.7054167 160.309532,67.5826739 C161.315186,63.0572304 161.5,58.5292984 161.5,45 C161.5,31.4707016 161.315186,26.9427696 160.309532,22.4173261 C159.171145,17.2945833 157.017979,14.3040742 152.881966,12.236068 C144.673306,8.13173802 133.302022,7.5 84,7.5 C34.6979783,7.5 23.3266939,8.13173802 15.118034,12.236068 C10.9820215,14.3040742 8.82885496,17.2945833 7.69046765,22.4173261 C6.68481355,26.9427696 6.5,31.4707016 6.5,45 C6.5,58.5292984 6.68481355,63.0572304 7.69046765,67.5826739 C8.82885496,72.7054167 10.9820215,75.6959258 15.118034,77.763932 C23.3266939,81.868262 34.6979783,82.5 84,82.5 Z" id="Oval"></path>
        </g>
    </g>
</svg>