<?xml version="1.0" encoding="UTF-8"?>
<svg width="400px" height="81px" viewBox="0 0 400 81" version="1.1" xmlns="http://www.w3.org/2000/svg" xmlns:xlink="http://www.w3.org/1999/xlink">
    <!-- Generator: Sketch 51.2 (57519) - http://www.bohemiancoding.com/sketch -->
    <title>Oval</title>
    <desc>Created with Sketch.</desc>
    <defs>
        <radialGradient cx="50%" cy="50%" fx="50%" fy="50%" r="326.308931%" gradientTransform="translate(0.500000,0.500000),scale(0.202500,1.000000),rotate(0.514066),scale(1.000000,0.625853),translate(-0.500000,-0.500000)" id="radialGradient-1">
            <stop stop-color="#8E9DA1" offset="0%"></stop>
            <stop stop-color="#000000" offset="100%"></stop>
        </radialGradient>
    </defs>
    <g id="Page-1" stroke="none" stroke-width="1" fill="none" fill-rule="evenodd">
        <g id="spacebar" transform="translate(-4.000000, -5.000000)" fill="url(#radialGradient-1)" fill-rule="nonzero" stroke="#8E9DA1" stroke-width="5">
            <path d="M204,83.0048722 C225.235846,83.0048722 243.780963,83.0834144 269.873788,83.2524886 C321.934626,83.5898283 331.771584,83.6089382 347.348733,83.2353705 C366.783804,82.7692829 378.70979,81.5953355 386.527942,79.2999834 C393.940715,77.1236474 397.675372,73.9811046 399.552376,68.7781838 C401.193891,64.2280209 401.5,59.5625074 401.5,45.5 C401.5,31.4374926 401.193891,26.7719791 399.552376,22.2218162 C397.675372,17.0188954 393.940715,13.8763526 386.527942,11.7000166 C378.70979,9.40466446 366.783804,8.23071715 347.348733,7.76462953 C331.771584,7.39106177 321.934626,7.41017168 269.873788,7.74751141 C243.780963,7.91658564 225.235846,7.99512778 204,7.99512778 C183.495688,7.99512778 165.589347,7.92604847 140.075801,7.77622782 C87.8949355,7.46981133 77.3139248,7.45628531 61.4740501,7.84212261 C41.7590491,8.32235258 29.649187,9.5056427 21.7069432,11.8064621 C14.1740648,13.9886908 10.3770381,17.1333655 8.47334068,22.3203487 C6.81041206,26.8513118 6.5,31.4982208 6.5,45.5 C6.5,61.1255092 6.94436148,66.0674194 9.34064663,70.6524176 C12.0933182,75.9193177 17.8327464,78.9880062 29.4005212,80.865513 C40.850315,82.7238709 57.6585344,83.401653 88.3781742,83.4406573 C99.1663385,83.4543549 175.027519,83.0048722 204,83.0048722 Z" id="Oval"></path>
        </g>
    </g>
</svg>